<?xml version="1.0" encoding="UTF-8"?>
<svg id="Layer_2" data-name="Layer 2" xmlns="http://www.w3.org/2000/svg" viewBox="0 0 934.89 308.14">
  <defs>
    <style>
      .cls-1 {
        fill: #6dd26d;
      }

      .cls-2 {
        fill: #3871c3;
      }

      .cls-3 {
        fill: #00adef;
      }

      .cls-4 {
        fill: #3871c2;
      }

      .cls-5 {
        fill: #3ff70b;
      }

      .cls-6 {
        fill: #0c6;
      }

      .cls-7 {
        fill: #028303;
      }
    </style>
  </defs>
  <g id="Layer_1-2" data-name="Layer 1">
    <g>
      <g>
        <path class="cls-3" d="M172.35,33.92c-64.73,0-117.2,52.47-117.2,117.2s52.47,116.19,117.2,116.19,117.19-51.47,117.19-116.19-52.47-117.2-117.19-117.2ZM172.22,248.46c-53.79,0-97.4-43.04-97.4-97.18s43.61-98.02,97.4-98.02,97.41,43.89,97.41,98.02-43.61,97.18-97.41,97.18Z"/>
        <g>
          <polygon class="cls-3" points="212.39 219.73 172.23 150.87 132.29 219.73 172.23 179.46 212.39 219.73"/>
          <polygon class="cls-3" points="232.53 219.73 246.78 190.54 172.34 62.02 97.9 190.77 112.15 219.73 172.35 115.2 232.53 219.73"/>
        </g>
      </g>
      <g>
        <path class="cls-4" d="M255.38,109.99c-.39-10.42-8.6-11.77-12.45-11.77h-18.78v36.2h10.41v-10.4h4.3l5.2,10.4h11.32l-6.79-12.67s7.18-1.35,6.79-11.76ZM243.28,115.15c-1.64,2.09-9.17,1.17-9.17,1.17v-9.27s7.42-1,9.17.75,1.65,5.27,0,7.35Z"/>
        <path class="cls-4" d="M128.39,105.16c-.39-10.42-8.6-11.77-12.44-11.77h-18.78v36.21h10.41v-10.41h4.29l5.21,10.41h11.31l-6.79-12.68s7.18-1.34,6.79-11.76ZM116.3,110.32c-1.65,2.09-9.18,1.17-9.18,1.17v-9.27s7.42-1,9.18.76,1.64,5.26,0,7.34Z"/>
        <g>
          <polygon class="cls-2" points="232.53 219.73 172.34 62.02 246.78 190.54 232.53 219.73"/>
          <polygon class="cls-2" points="172.35 115.2 97.9 190.77 112.15 219.73 172.35 115.2"/>
        </g>
      </g>
      <g>
        <g>
          <path class="cls-5" d="M210.51,0s13.3,26.15,31.62,21.57c-.59-8.42-5.61-16.99-31.62-21.57Z"/>
          <path class="cls-5" d="M245.38,3.55s2.95,28.07,24.52,34.28c.59-8.42.15-20.54-24.52-34.28Z"/>
          <path class="cls-5" d="M261.63,37.82s-19.35,6.2-43.29-1.77c8.72-5.76,33.68-11.52,43.29,1.77Z"/>
          <path class="cls-5" d="M278.62,19.35s-5.53,31.18,15.73,43.67c4.63-13.23,1.81-28.15-15.73-43.67Z"/>
          <path class="cls-5" d="M286.46,58.88s-15.27,4.63-44.33-13.89c17.75-2.06,34.21-.69,44.33,13.89Z"/>
          <path class="cls-5" d="M308.58,46.53s-15.43,21.78.86,46.81c9.6-10.12,10.97-25.55-.86-46.81Z"/>
          <path class="cls-5" d="M303.95,88.03s-13.03,1.03-40.47-26.92c17.32,1.54,36.35,11.15,40.47,26.92Z"/>
          <path class="cls-5" d="M330.7,80.48s-21.43,19.55-12.69,48.87c8.57-1.71,18.01-12.69,12.69-48.87Z"/>
          <path class="cls-5" d="M313.55,123.53s-13.68-6.03-32.75-37.21c12.52,3.6,34.47,16.8,32.75,37.21Z"/>
          <path class="cls-5" d="M343.39,121.3s-31.04,20.92-25.38,46.81c12-2.74,22.98-10.97,25.38-46.81Z"/>
          <path class="cls-5" d="M293.42,114.63s4.01,32.9,21.33,46.62c3.77-12.86.72-27.57-21.33-46.62Z"/>
          <path class="cls-5" d="M295.55,147.53s-4.8,37.38,11.32,52.3c6-12.69,9.21-27.14-11.32-52.3Z"/>
          <path class="cls-5" d="M287.66,234.99s-6.34-15.43-2.74-30.69c3.6-15.26,5.14-22.64,5.14-22.64,0,0,17.83,29.49-2.4,53.33Z"/>
          <path class="cls-5" d="M336.36,211.32s-36.01,3.09-49.73,30.69c7.55,2.4,23.66-1.03,30.69-9.26,7.03-8.23,19.04-21.43,19.04-21.43Z"/>
          <path class="cls-5" d="M314.07,252.99s-19.72-2.57-33.61,2.23c-13.89,4.8-23.67,14.4-23.67,14.4,0,0,11.83,5.83,28.64,0,16.81-5.83,28.64-16.63,28.64-16.63Z"/>
          <path class="cls-5" d="M281.14,285.92s-19.21-6.69-32.75-6.52-26,5.66-26,5.66c0,0,8.34,10.29,25.31,9.43,16.98-.86,33.44-8.57,33.44-8.57Z"/>
          <path class="cls-5" d="M243.42,308.04s-18.01,1.2-34.47-4.8c-16.46-6-22.14-15.09-22.14-15.09,0,0,12.52-2.4,28.3,3.94,15.79,6.34,28.3,15.95,28.3,15.95Z"/>
          <path class="cls-5" d="M192.66,285.4s2.69-18.4,34.35-25.75c-.4,7.74-11.38,30.04-34.35,25.75Z"/>
          <path class="cls-5" d="M255.08,240.1s-27.78,20.27-28.81,40.5c14.06-2.57,29.15-13.96,28.81-40.5Z"/>
          <path class="cls-5" d="M277.03,212.87s-18.86,24.35-17.49,50.59c15.09-8.75,22.81-22.64,17.49-50.59Z"/>
          <path class="cls-5" d="M345.1,165.71s-16.62,6.66-26.75,18.86c-10.13,12.2-10.46,23.75-10.46,23.75,0,0,13.2-.77,23.32-13.8,10.12-13.03,13.89-28.81,13.89-28.81Z"/>
        </g>
        <g>
          <path class="cls-5" d="M134.59,0s-13.3,26.15-31.62,21.57C103.57,13.15,108.59,4.58,134.59,0Z"/>
          <path class="cls-5" d="M99.73,3.55s-2.95,28.07-24.52,34.28c-.59-8.42-.15-20.54,24.52-34.28Z"/>
          <path class="cls-5" d="M83.48,37.82s19.35,6.2,43.29-1.77c-8.72-5.76-33.68-11.52-43.29,1.77Z"/>
          <path class="cls-5" d="M66.49,19.35s5.53,31.18-15.73,43.67c-4.63-13.23-1.81-28.15,15.73-43.67Z"/>
          <path class="cls-5" d="M58.65,58.88s15.27,4.63,44.33-13.89c-17.75-2.06-34.21-.69-44.33,13.89Z"/>
          <path class="cls-5" d="M36.53,46.53s15.43,21.78-.86,46.81c-9.6-10.12-10.97-25.55.86-46.81Z"/>
          <path class="cls-5" d="M41.16,88.03s13.03,1.03,40.47-26.92c-17.32,1.54-36.35,11.15-40.47,26.92Z"/>
          <path class="cls-5" d="M14.4,80.48s21.43,19.55,12.69,48.87c-8.57-1.71-18.01-12.69-12.69-48.87Z"/>
          <path class="cls-5" d="M31.55,123.53s13.68-6.03,32.75-37.21c-12.52,3.6-34.47,16.8-32.75,37.21Z"/>
          <path class="cls-5" d="M1.71,121.3s31.04,20.92,25.38,46.81c-12-2.74-22.98-10.97-25.38-46.81Z"/>
          <path class="cls-5" d="M51.68,114.63s-4.01,32.9-21.33,46.62c-3.77-12.86-.72-27.57,21.33-46.62Z"/>
          <path class="cls-5" d="M49.56,147.53s4.8,37.38-11.32,52.3c-6-12.69-9.21-27.14,11.32-52.3Z"/>
          <path class="cls-5" d="M57.45,234.99s6.34-15.43,2.74-30.69c-3.6-15.26-5.14-22.64-5.14-22.64,0,0-17.83,29.49,2.4,53.33Z"/>
          <path class="cls-5" d="M8.75,211.32s36.01,3.09,49.73,30.69c-7.55,2.4-23.66-1.03-30.69-9.26-7.03-8.23-19.04-21.43-19.04-21.43Z"/>
          <path class="cls-5" d="M31.04,252.99s19.72-2.57,33.61,2.23c13.89,4.8,23.67,14.4,23.67,14.4,0,0-11.83,5.83-28.64,0-16.81-5.83-28.64-16.63-28.64-16.63Z"/>
          <path class="cls-5" d="M63.96,285.92s19.21-6.69,32.75-6.52,26,5.66,26,5.66c0,0-8.34,10.29-25.31,9.43-16.98-.86-33.44-8.57-33.44-8.57Z"/>
          <path class="cls-5" d="M101.69,308.04s18.01,1.2,34.47-4.8c16.46-6,22.14-15.09,22.14-15.09,0,0-12.52-2.4-28.3,3.94-15.79,6.34-28.3,15.95-28.3,15.95Z"/>
          <path class="cls-5" d="M152.45,285.4s-2.69-18.4-34.35-25.75c.4,7.74,11.38,30.04,34.35,25.75Z"/>
          <path class="cls-5" d="M90.03,240.1s27.78,20.27,28.81,40.5c-14.06-2.57-29.15-13.96-28.81-40.5Z"/>
          <path class="cls-5" d="M68.08,212.87s18.86,24.35,17.49,50.59c-15.09-8.75-22.81-22.64-17.49-50.59Z"/>
          <path class="cls-5" d="M0,165.71s16.62,6.66,26.75,18.86c10.13,12.2,10.46,23.75,10.46,23.75,0,0-13.2-.77-23.32-13.8-10.12-13.03-13.89-28.81-13.89-28.81Z"/>
        </g>
      </g>
      <g>
        <polygon class="cls-7" points="203.85 11.68 199.63 1.49 196.22 11.68 184.8 11.68 193.65 19.31 190.23 29.71 199.33 23.22 209.89 29.71 205.8 18.89 214.59 11.56 203.85 11.68"/>
        <polygon class="cls-7" points="141.26 11.68 145.47 1.49 148.89 11.68 160.3 11.68 151.45 19.31 154.87 29.71 145.77 23.22 135.21 29.71 139.3 18.89 130.51 11.56 141.26 11.68"/>
      </g>
      <g>
        <polygon class="cls-1" points="199.63 1.49 199.7 16.45 196.22 11.68 184.8 11.68 199.7 16.45 193.65 19.31 190.23 29.71 199.7 16.45 209.89 29.71 205.8 18.89 199.7 16.45 214.59 11.56 203.85 11.68 199.63 1.49"/>
        <polygon class="cls-1" points="145.47 1.49 145.41 16.45 148.89 11.68 160.3 11.68 145.41 16.45 151.45 19.31 154.87 29.71 145.41 16.45 135.21 29.71 139.3 18.89 145.41 16.45 130.51 11.56 141.26 11.68 145.47 1.49"/>
      </g>
    </g>
    <g>
      <g>
        <path class="cls-6" d="M494.12,160.56c-5.46-4.33-12.05-28.62-18.08-30.32,19.39-5.27,16.38-30.5,6.97-36.91-9.42-6.4-24.67-5.08-41.81-5.08s-19.96-1.32-20.9,1.69c-.95,3.02,2.07,5.84,4.15,9.23,2.07,3.39,1.69,41.05,1.5,50.68-.19,9.62-5.84,11.08-5.65,14.85.19,3.77,3.39,4.14,9.98,3.77,6.59-.38,12.05.18,18.27.9,6.21.71,8.47-3.16,4.71-8.81-3.77-5.65-3.39-8.29-3.39-16.57s1.13-10.36,6.77-8.48c5.65,1.89,5.09,11.87,6.41,20.72,1.32,8.85,2.26,11.67,6.21,11.86,3.96.19,12.05,0,21.09,1.13s9.23-4.33,3.77-8.66ZM458.95,122.9c-6.36,3.01-9.65,1.31-9.46-4.71,0,0,.19-8.29-.01-14.5-.19-6.21,2.46-6.97,6.04-6.78,3.57.19,8.28,2.83,9.03,9.42.76,6.59.76,13.55-5.6,16.57Z"/>
        <path class="cls-6" d="M655.53,160.31c-5.46-4.33-12.06-28.62-18.08-30.32,19.39-5.27,16.38-30.5,6.97-36.9-9.42-6.41-24.67-5.09-41.81-5.09s-19.96-1.32-20.9,1.7c-.95,3.01,2.07,5.83,4.14,9.22,2.08,3.39,1.7,41.05,1.51,50.68-.19,9.63-5.84,11.09-5.65,14.85.19,3.77,3.39,4.15,9.98,3.77,6.59-.38,12.05.19,18.27.9,6.21.72,8.47-3.16,4.7-8.81-3.76-5.65-3.38-8.29-3.38-16.57s1.13-10.36,6.77-8.47c5.65,1.88,5.09,11.86,6.41,20.71,1.31,8.85,2.26,11.67,6.21,11.86s12.05,0,21.09,1.13c9.04,1.13,9.23-4.33,3.77-8.66ZM620.36,122.65c-6.36,3.01-9.65,1.32-9.46-4.71,0,0,.19-8.28-.01-14.5-.19-6.21,2.46-6.96,6.03-6.78,3.58.19,8.29,2.83,9.04,9.42.76,6.59.76,13.56-5.6,16.57Z"/>
        <path class="cls-6" d="M539.87,119.7s-5.65-3.39-5.27-12.24c.38-8.85,1.88-12.8,7.53-12.8s5.65,8.1,2.26,11.11c-3.39,3.01-3.95,9.79,4.52,10.36s13.56-3.39,14.5-11.3c.94-7.91-6.03-15.64-17.89-16.86s-21.09-.28-30.69,7.63-.19,22.97,7.53,25.8c-12.8,2.26-21.47,13.18-19.77,26.55,1.69,13.37,19.39,21.56,35.4,21.51s32.76-4.38,35.02-20.2c2.26-15.82-10.36-20.64-16.76-20.77s-11.86,6.08-11.86,6.08c0,0-2.26-5.08,1.32-8.29s9.79-1.88,16.95.19c7.16,2.07,13.75-.56,15.44-7.34s-2.94-13.77-9.98-10.73c1.88,7.34-1.51,10.73-11.49,10.73s-15.25,1.51-17.7,7.91c-2.45,6.4-.56,12.43,4.52,16.95s5.46,15.25-2.26,16.76c-7.72,1.51-13.37-4.71-13.18-16.95s2.26-22.22,11.86-24.1Z"/>
        <path class="cls-6" d="M776.01,108.72c-21.26.53-28.11,9.49-28.81,26.92-.71,17.44,10.54,25.79,27.23,26.84,16.69,1.06,28.81-8.08,29.34-24.77.53-16.69-9.14-29.45-27.76-28.99ZM780.05,151.94c-2.11,5.27-9.49,4.75-10.72-3.86s-1.4-16.52,0-24.95c2.13-12.78,10.19-7.38,12.13,1.4,1.93,8.79.7,22.14-1.41,27.41Z"/>
        <path class="cls-6" d="M839.95,109.12c-21.26.52-28.11,9.48-28.82,26.92-.7,17.43,10.55,25.78,27.24,26.84,16.69,1.05,28.81-8.08,29.34-24.78.52-16.69-9.14-29.45-27.76-28.98ZM843.99,152.34c-2.11,5.27-9.49,4.74-10.72-3.87-1.23-8.61-1.4-16.51,0-24.95,2.13-12.78,10.19-7.38,12.12,1.41,1.94,8.78.71,22.13-1.4,27.41Z"/>
        <path class="cls-6" d="M707.99,147c-.18,4.75,1.1,6.39,4.02,10.04s-1.46,6.32-6.94,5.53-10.77-.86-16.24,0-7.3-2.88-4.02-7.22,2.56-9.45,2.56-21.49.91-28.29-2.56-31.03-3.83-7.48,5.66-7.12c9.49.37,33.88-.4,38.57-.02s7.79,3.49,10.53,12.07,1.46,11.32-1.64,10.77-8.94-9.67-13.87-12.78-16.24-4.2-16.24-.18-.55,15.92-.18,18.54c.37,2.63,5.48,4.13,10.22,0,4.75-4.13,6.94-8.14,10.04-6.32s1.02,12.86,1.15,17.66c.13,4.79-3.19,4.88-7.28,0s-13.49-6.12-13.67-1.01-.09,12.56-.09,12.56Z"/>
        <path class="cls-6" d="M934.03,157.4c-1.98-2.75-3.97-4.89-3.97-9.54v-53.01c0-8.41-1.99-11.01-7.19-6.73-5.2,4.28-9.18,4.59-13.97,5.96-4.8,1.38-5.3,4.29-2.24,6.89,3.06,2.6,2.24,8.13,2.24,8.13,0,0-8.97-2.47-17.84,0-8.88,2.48-15.15,13.74-16.22,25.06-1.07,11.31.16,22.02,8.57,27.07,8.41,5.05,18.96-.31,24.47-7.8-.31,7.19,2.14,9.94,7.65,9.53,5.5-.41,10.7-.66,14.83,0,4.13.66,5.66-2.8,3.67-5.56ZM908.65,141.43c-.54,6.18-6.91,8.91-10.18,3.63-3.28-5.27-2.39-13.46-1.82-22.91.63-10.62,12.25-9.58,12,3.09,0,0,.55,10,0,16.19Z"/>
      </g>
      <g>
        <path class="cls-3" d="M444.45,199.22h-8.49s.11-4.16-3.26-4.16-4.72,4.72,1.12,6.85c5.84,2.13,11.12,5.84,9.21,13.03-1.91,7.19-10.9,7.08-15.95,6.4-5.06-.67-6.52-4.72-6.97-10.11h7.86s-.67,4.16,3.71,4.16,4.22-6.11.59-7.04-9.8-2.62-9.92-8.57c-.11-5.95,4.16-9.77,12.36-9.77,6.86,0,9.08,4.77,9.72,9.21Z"/>
        <path class="cls-3" d="M460.9,195.52c-3.58.2-10.28,1.85-12.92,8.87-2.39,6.36-.81,14.69,5.73,16.52,7.15,2,15.95-1.24,18.09-9.55,2.13-8.31-1.35-16.39-10.9-15.84ZM463.71,210.91c-2.36,5.06-8.2,4.27-9.21,1.35-1.01-2.92.46-9.08,5.73-10.22,3.58-.78,5.84,3.82,3.48,8.87Z"/>
        <path class="cls-3" d="M600.25,195.52c-3.58.2-10.28,1.85-12.92,8.87-2.39,6.36-.81,14.69,5.73,16.52,7.15,2,15.95-1.24,18.09-9.55,2.13-8.31-1.35-16.39-10.9-15.84ZM603.06,210.91c-2.36,5.06-8.2,4.27-9.21,1.35-1.01-2.92.46-9.08,5.73-10.22,3.58-.78,5.84,3.82,3.48,8.87Z"/>
        <path class="cls-3" d="M485.56,196.3s-1.96,11.91-1.85,15.5c.11,3.6,7.42,4.49,8.54-.79,1.12-5.28,1.91-14.72,1.91-14.72h7.75l-3.82,24.49h-7.86l1.01-3.6s-5.39,4.94-10.56,3.6c-5.17-1.35-5.39-3.82-4.83-10s1.8-14.49,1.8-14.49h7.92Z"/>
        <path class="cls-3" d="M732.58,196.66s-1.96,11.91-1.85,15.5c.11,3.6,7.42,4.49,8.54-.79,1.12-5.28,1.91-14.72,1.91-14.72h7.75l-3.82,24.49h-7.86l1.01-3.6s-5.39,4.94-10.56,3.6-5.39-3.82-4.83-10c.56-6.18,1.8-14.49,1.8-14.49h7.92Z"/>
        <path class="cls-3" d="M507.53,196.3l-4.04,24.73,8.09-.46s1.01-10.34,2.25-14.16,8.2-2.36,8.2-2.36l.79-8.56-7.98,4.3v-3.48h-7.3Z"/>
        <path class="cls-3" d="M754.04,196.18l-4.04,24.73,8.09-.46s1.01-10.34,2.25-14.16c1.24-3.82,8.2-2.36,8.2-2.36l.79-8.56-7.98,4.3v-3.48h-7.3Z"/>
        <path class="cls-3" d="M573.84,209.46s2.42-11.76-6.68-13.45c-9.11-1.69-16.76,3.14-18.21,13.94-1.45,10.79,9.26,13,14.18,11.53,4.91-1.46,7.89-5.41,9.1-8.95h-7.89s-1.13,2.41-4.03,2.41-4.19-2.17-3.63-5.48c6.37.17,17.16,0,17.16,0ZM563.21,201.95c4.83-.06,3.54,4.21,3.54,4.21h-9.26s.89-4.15,5.72-4.21Z"/>
        <path class="cls-3" d="M794.54,209.62s2.42-11.76-6.68-13.45c-9.1-1.7-16.76,3.14-18.21,13.93-1.45,10.8,9.27,13.01,14.18,11.54,4.91-1.47,7.9-5.42,9.1-8.96h-7.89s-1.13,2.42-4.03,2.42-4.19-2.18-3.62-5.48c6.36.16,17.15,0,17.15,0ZM783.91,202.1c4.83-.05,3.55,4.22,3.55,4.22h-9.27s.89-4.16,5.72-4.22Z"/>
        <polygon class="cls-3" points="648.03 220.46 639.67 220.46 645.1 189.99 653.42 189.99 662.35 208.49 665.18 189.99 672.38 189.99 667.73 220.46 660.22 220.46 651.2 201.95 648.03 220.46"/>
        <path class="cls-3" d="M631.33,193.05s-4.46-1.23-4.9,3.68h4.46l-.88,6.39h-5.34l-2.19,17.34h-7.23l2.5-17.69-2.98-.18,1.06-6.3,3.14.09s.53-5.69,4.73-8.05,8.05-2.28,8.05-2.28l-.44,7Z"/>
        <path class="cls-3" d="M717.16,189.99h-7.09l-1.88,6.21h-3.41l-1.23,6.83h3.33s-1.93,7-1.93,11.82,5.05,6.38,12.26,5.61l.79-6.66-5.16.18,2.28-11.21,4.9-.18v-6.74l-4.11.09,1.26-5.95Z"/>
        <path class="cls-3" d="M693.92,196.04l-.6,3.81s-2.4-4.65-8.02-4.48c-5.61.17-12.92,8.29-12.02,16.51.9,8.22,5.51,9.6,7.92,9.51,2.4-.09,5.91-.39,8.71-3.9l-.1,3.21,7.62-.24,4.21-24.42h-7.72ZM685,214.18c-3.7,0-5.71-5.91-.9-10.42,3.39-3.17,8.02-1.3,7.82,3.01-.2,4.31-3.21,7.41-6.92,7.41Z"/>
        <path class="cls-3" d="M545.99,211.54h-8s-1.19,3.24-4.68,2.55-3.75-5.11-1.45-8.69c2.3-3.58,6.39-4.68,7.83,0l8.17-.09s-.68-9.02-9.2-9.83c-7.8-.74-14.69,3.45-15.86,13.66-1.17,10.22,6.41,13.21,11.86,12.74s10.64-5.33,11.32-10.35Z"/>
      </g>
    </g>
  </g>
</svg>